<?xml version="1.0" encoding="UTF-8"?>
<svg id="Layer_1" data-name="Layer 1" xmlns="http://www.w3.org/2000/svg" viewBox="0 0 447.93 419.47">
  <defs>
    <style>
      .cls-1 {
        fill: #fff;
      }
    </style>
  </defs>
  <path class="cls-1" d="M447.93,217.95c.05-1.09-1.75-5.98-1.75-8.71,0-2.37,1.33-5.64,1.19-6.76-.08-.59-1.88-.59-1.94-1.17-.83-8.11.33-17.51-1.29-26.66-5.04-28.36-11.97-48.49-29.35-73.01-19.08-26.93-35.98-42.57-65.05-60.29-21.73-13.24-48.35-27.89-74.79-32.3-12.86-2.15-20.18-8.86-36.05-7.95-4.15.24-4.51,2.22-4.8,2.23-.6.04-.71-2.56-3.06-3.2-1.03-.28-10.33-.12-12.71-.12-13.65,0-24.07.83-36.88,5.06-6.36,2.1-20.55,5.41-24.36,9.91-2.01,2.37.79,4.06-4.65,1.96l-.1,3.45c-1.7.25-.55-1.48-.89-1.78-.52-.46-1.77,1.43-2.36,1.6-.74-4.62-3.03,2.25-4.2,1.49.29-1.55-1.39-2.17-2.73-2.75,1.08,4.67-4.91,1.9-7.45,2.64-.35.1-5.46,2.08-5.72,2.25-1.08.68-.71,2.55-1.08,2.85-.69.55-2.55-.18-4.11-.06-.22.23-.49.44-.84.61-.37.18-.74.34-1.12.51-.36.63-.53,1.59-.42,3.02-1.7-.98-2.06-1.62-1.88-2.04-1.04.43-2.08.85-3.1,1.31-.02,0-.05.02-.07.03l3.2.61c.52.71-5.13,4.39-5.66,4l-.49-3.15c-.47.33-.81.68-.83,1.03-.03.39-.13.73-.26,1.04.31.59.55,1.2.62,1.88-4.97-.2-6.67,2.81-9.5,5.02-1.87,1.46-4.91-.29-2.82,4.67-4.51-2.35-1.82.92-3.72,2.01-.94.54-2.82-.11-3.57.37-.53.34-1.55,4.63-2.46,5.47-1.02.95-3.62.97-5.07,1.98-2.31,1.63-3.8,6.56-4.39,7.06-.5.43-2.98.39-4.43,1.28-6.71,4.09-6.21,8.06-9.62,13.12-.61.9-2,.23-2.54.65-2.46,1.9-1.61,7.12-5.11,7.73.14,2.02,2.91,1.2,1.73,4.84-1.18-.14-2.49-2.14-3.69-1.55-.66.33-5.02,7.83-6.15,9.3-1.32,1.72-6.75,4.06-.68,5.06-.89,1.89-3.79,1.28-4.21,1.89-.97,1.41-1.07,4.97-2.43,6.28-.83.8-2.22.03-2.89.97-2.79,3.86-3.17,8.51-4.5,11.31-.32.68-5.85,5.54-6.09,6.31-.34,1.08.27,3.19-.21,3.64-.31.29-2.28-.35-2.59-.06-.51.48.18,2.59-.21,3.64-.28.74-4.79,4.3-5.06,4.86-1.31,2.71-1.89,8.49-3.37,11.55-.5,1.02-2.05.79-2.22,1.52-.32,1.39.78,3.13.08,5.09-.82,2.27-4.54,6.7-5.59,10.38-1.32,4.6-.23,8.23-.65,11.57-.05.4-4.9,3.82-2.08,6.96l-1.76-.49c-1.42,4.81-1.48,10.09-2.32,14.9-1.44,8.28-1.01,10.28-.5,19.08.02.35-1.49.22-1.73.93-1.4,4.13-2.32,20.31-2.57,25.62-.14,3.01,1.62,6.64.74,9.94l3.73-.65c-3.88,2.28,3.32,6.6-2.88,4.16,4.07,4.21,3.65,5.6,1.62,10.46l2.81-1.57c.36,1.76-1.78,2.14-1.9,3.75-.38,5.02,6.47,12.15,4.2,17.13l2.79-.71c.3.38-.81,4.54-.78,5.71.17,7.14,1.82,9.85,5.71,15.42.26.37-1.39,1.91-.47,3.32.48.73,2.23,1.05,2.77,1.86.32.48,3.66,9.14,3.9,10.22.26,1.16-.2,3.57,0,3.86.13.18,3.52-.67,4.63.26,1.07,2.81-3.22,1.07-2.83,1.99.81,1.92,2.83.59,3.27.69.36.08-.36,1.28-.2,1.44,2.49,2.42,4.85,4.67,6.25,7.7.69,1.5,1.23,5.71,1.47,5.93.3.28,2.19-.8,2.81-.35,1.22.89.57,3.4,1.28,4.86,2.51,5.13,11.02,8.8,15.46,12.15,4.16,3.13,5.67,4.79,10.19,7.8,1.21.8,5.74,5,6.73,4.36.31-.2-.66-2.14.96-1.67-.6,3.5,1.89,2.9,3.56,4.19.71.55.82,1.76,1.16,1.97.26.16,5.94.29,6.18.65.34.52-.34,1.84.6,2.56,4.67,3.55,14.84,6.85,20.3,9.53,3.97,1.94,7,5.15,11.35,6.5-.13.81,13.61,9.03,13.71,8.94.19-.18,4.88-1.46,5.15-1.47,2.56-.1,10.61,3.74,10.66-.28,1.34-.3.85,1.4,1.82,2.22,18.25,6.84,41.57,4.73,60.7,6.36,4.77.36,12.52,4.25,14.9-.82l.87,2.65c8.6-2.07,20.6-.4,28.81-1.91,1.37-.25,1.97-.85,2.49-1.33,1.01-.02,2.02-.07,3.03-.13.13.03.24.02.34-.02,4.41-.25,8.8-.82,13.13-1.71,2.96.92,6.24.61,8.97-1.01.39-.23.6-.62.66-1.04,1.43-.12,2.87-.23,4.26-.45,4.31-.66,8.49-1.97,12.56-3.5,1.48-.55,2.95-1.14,4.42-1.72,3.13-.99,7.92-2.48,10.28-3.64.64-.31,1.49-.87,2.22-1.53,2.76-1.17,5.51-2.35,8.26-3.52,3.12-1.32,6.23-2.65,9.34-3.98,4.68-3.92,9.96-6.83,15.68-9.1.09-.06.18-.13.28-.19.64-.32,1.54-.43,1.8-.8.12-.18.19-.39.24-.62,4.38-3.07,8.63-6.36,12.3-10.2.77-.58,1.5-1.2,2.2-1.87,2.02-1.2,3.97-1.96,7.32-4.4,2.75-2,6.69-4.57,4.8-8,4.07,2.71,2.73-1.55,4.67-3.51.53-.53,5.02-2.05,6.14-3.72.77-1.15.96-3.52,1.62-5.07.13-.12.27-.23.41-.35.57-.33,1.12-.68,1.67-1.04.45.09.96.31,1.59.74l.05-1.93c.6-.47,1.18-.97,1.75-1.49l.14.07-.05-.15c2.2-2.03,4.09-4.39,5.59-7.01l1.13.61-.59-2.46c.2-.27.41-.53.61-.8l2.83.81c-1.44-3.26.54-2.94,2.9-4.59l-1.82-1.39c2.31,1.21,6.44-5.07,7.01-6.71.67-1.9.12-3.1-.16-4.15.98-1.15,1.9-2.34,2.77-3.57,1.29-.07,2.87-.2,3.51-.64,1.18-.82,2.38-5.71,4.12-6.9-.11-.07-.21-.12-.32-.16.56-1.04,1.03-2.12,1.41-3.24.23-.69.41-1.4.56-2.11.5,0,1-.05,1.31-.51.88-1.33,2.17-4.91,2.94-6.59-.25-.24-.41-.36-.53-.4.11-.23.22-.45.32-.68.35.17.72.38,1.13.69.67-2.88.66-4.93,2.05-7.67-.38.13-.72-.14-.9-.48.02-.54.86-.33.92-.38,1.84-1.56,3.21-1.14,1.95-4.21,5.13.97,2.07-2.34,2.12-4.68,0-.39,1.28-.31,1.64-1,1.52-2.86,2.31-5.36,2.17-8.7l1.82.98c-.94-3.5,1.78-6.02,2.13-8.96.55-4.62.03-3.17,1.2-6.73,2.28-6.96,1.31-18.17,1.66-25.86.05-1.21,1.4-2.48,1.3-3.5-.07-.74-1.45-1.43-1.47-2.66,0-.54,1.95-.3,1.97-.78ZM2.77,231.68l.02-.86c.6.32.59.61-.02.86ZM5.02,254.28l.02-.86c.6.32.59.61-.02.86ZM8.2,276.94l.02-.86c.6.32.59.61-.02.86ZM145.33,22.58c.6.32.59.61-.02.86l.02-.86ZM129.86,27.78l-.04,1.72-2.78-.16c.34-1.23,1.55-1.9,2.82-1.56ZM93.53,50.83c.6.32.59.61-.02.86l.02-.86ZM75.97,66.28c.34-.57,1.56.59.87,1.77-.34.57-1.56-.59-.87-1.77ZM73.58,68.74c.6.32.59.61-.02.86l.02-.86ZM27.59,145.74c.62.33-.58,1.44-1.87.74-.62-.33.58-1.44,1.87-.74ZM24.28,148.14c.6.32.59.61-.02.86l.02-.86ZM13.35,294.52l.02-.86c.6.32.59.61-.02.86ZM183.36,415.51l.02-.86c.6.32.59.61-.02.86ZM425.25,289.76l.02-.86c.6.32.59.61-.02.86ZM434.86,242.65c-3.78,27.32-21.24,60.12-38.95,82.08-62.29,77.22-150.73,96.27-252.35,74.09-17.78-3.88-32.2-12.03-47.93-20.08-37.25-19.08-59.8-37.24-72.75-76.29-16.19-48.85-12.38-101.78,7.77-147.87,12.93-29.58,35.99-63.88,58.31-87.12,6.6-6.87,13.88-13.42,19.96-20.31,1.17-1.32,3.64-1.49,4.73-2.57.91-.9.83-2.53,1.16-2.77.54-.39,2.97.17,4.46-.37,5.13-1.85,15.41-9.85,21.76-12.56,5.49-2.35,15.1-3.3,21.07-5.28.55-.18,2.46-1.25,3.49-1.91.2-.36.46-.68.78-.94.06-.9-.4-2.27.9-3.42,3.02-2.68,29.81-7.56,35.17-7.88,11.39-.68,23.81.86,34.26.86,34.87,1.53,81.45,22.85,110.82,40.62,3.02,2.11,3.56,5.14,6.66,2.32,3.56,5.64,11.13,12.52,18.27,14l-1.88,1.6c2.28.47,3.46,2.43,5.46,3.39,1.15.55,3.18.32,3.7.65.18.11-.91,1.53.84,3.64,20.5,24.77,42.69,44.37,47.55,76.24.79,5.18,3.88,8.34,5.11,13.42,5.25,21.58,4.76,53.83,1.62,76.5Z"/>
  <path class="cls-1" d="M215.64,387.62c0-8.97,7.45-15.35,17.48-15.62l.11,1.67c-6.8.57-11.55,4.37-12.8,10.33,1.33-2.2,3.34-3.65,5.85-3.65,3.57,0,6.04,2.58,6.04,6.31,0,5.24-4.26,8.97-9.46,8.97-4.41,0-7.22-3-7.22-8.02ZM227.88,386.52c0-2.47-1.1-3.95-2.89-3.95-2.77,0-5.09,3.38-5.09,7.37,0,2.43,1.03,4.1,2.96,4.1,2.7,0,5.02-3.5,5.02-7.52Z"/>
  <g>
    <path class="cls-1" d="M207.45,41.4l4.1-.72,1.9-9.95c.19-1.03.38-1.98.68-2.96-1.48.34-2.85.46-4.48.49l-.04-1.48c3.31-.49,5.7-1.33,8.24-3.72h1.37l-2.93,15.27c-.15.87-.3,1.56-.49,2.36l3.72.72-.23,1.33h-12.12l.27-1.33Z"/>
    <path class="cls-1" d="M221.44,40.49c10.22-6.38,12.96-8.66,12.96-12.58,0-1.79-1.14-3.27-3.19-3.27-.99,0-1.82.27-2.7.8l-.68,4.22c-2.17.53-3.5-.53-3.5-2.05,0-2.43,2.89-4.56,7.33-4.56s7.29,1.98,7.29,5.13c0,2.96-2.36,5.7-8.17,8.81l-5.89,2.77,10.07-.27,1.56-3.04,1.33.23-1.41,6.04h-15.16l.15-2.24Z"/>
  </g>
  <path class="cls-1" d="M390.24,216.24c0-1.86,1.98-3.04,4.14-2.39l-.42,3.72c.61.49,1.67.76,2.66.76,3.08,0,5.02-2.47,5.02-5.59,0-2.39-1.37-3.91-3.8-3.91-.61,0-1.14.11-1.67.27l-.15-1.67c5.32-.68,7.26-3.08,7.26-6.16,0-2.01-1.44-3.19-3.38-3.19-.99,0-1.79.23-2.58.68l-.72,3.91c-1.94.46-3.42-.42-3.42-2.09,0-2.32,3.12-4.1,7.22-4.1s7.29,1.98,7.29,5.13-2.66,5.4-7.26,5.96v.15c3.53.08,5.78,1.98,5.78,5.17,0,4.26-4.37,7.03-9.35,7.03-3.84,0-6.61-1.41-6.61-3.69Z"/>
  <path class="cls-1" d="M304.33,64.8l4.1-.72,1.9-9.95c.19-1.03.38-1.98.68-2.96-1.48.34-2.85.46-4.48.49l-.04-1.48c3.31-.49,5.7-1.33,8.24-3.72h1.37l-2.93,15.27c-.15.87-.3,1.56-.49,2.36l3.72.72-.23,1.33h-12.12l.27-1.33Z"/>
  <path class="cls-1" d="M365.56,127.94c10.22-6.38,12.96-8.66,12.96-12.58,0-1.79-1.14-3.27-3.19-3.27-.99,0-1.82.27-2.7.8l-.68,4.22c-2.17.53-3.5-.53-3.5-2.05,0-2.43,2.89-4.56,7.33-4.56s7.29,1.98,7.29,5.13c0,2.96-2.36,5.7-8.17,8.81l-5.89,2.77,10.07-.27,1.56-3.04,1.33.23-1.41,6.04h-15.16l.15-2.24Z"/>
  <path class="cls-1" d="M375.63,302.48h-10.11l-.11-1.86,13.79-15.31h3.84l-2.77,14.82h3.19l-.46,2.36h-3.15l-1.06,5.62h-4.22l1.06-5.62ZM368.71,300.12h7.33l1.37-7.03c.23-1.29.57-2.74.99-4.14l-4.75,5.36c-1.79,2.05-3.19,3.65-4.94,5.81Z"/>
  <path class="cls-1" d="M302.71,368.56c0-1.86,1.98-3,4.1-2.36l-.42,3.76c.57.46,1.63.72,2.58.72,3,0,5.09-2.81,5.09-6.27,0-2.58-1.29-4.18-3.61-4.18-1.37,0-2.7.42-4.14,1.67l-1.1-.95,2.96-11.82h8.24c1.56,0,2.89-.08,4.52-.34l-1.25,3.95h-9.92l-.68,2.51c-.42,1.63-.87,3-1.29,4.18,1.29-.91,2.7-1.33,4.29-1.33,3.8,0,6.65,2.17,6.65,6.15,0,4.83-4.52,8.02-9.61,8.02-3.65,0-6.42-1.48-6.42-3.72Z"/>
  <path class="cls-1" d="M142.38,349.81l-.38,2.28c-5.66,7.83-8.85,13.53-12.58,20.78l-4.45-1.37c4.37-6.8,7.98-11.13,13.75-18.08h-10.33l-1.98,3.57-1.37-.11,1.75-7.07h15.58Z"/>
  <path class="cls-1" d="M57.14,204.95c0,8.78-7.22,15.05-17.14,15.31l-.15-1.67c6.73-.61,11.51-4.29,12.61-10.33-1.37,2.17-3.38,3.65-5.89,3.65-3.27,0-6-2.28-6-6.34,0-5.09,4.18-8.74,9.35-8.74,4.41,0,7.22,3.12,7.22,8.13ZM44.99,205.75c0,2.39,1.14,3.91,2.93,3.91,2.7,0,4.98-3.23,4.98-7.07,0-2.43-1.1-4.14-3.08-4.14-2.58,0-4.83,3.38-4.83,7.29Z"/>
  <path class="cls-1" d="M64.32,300.39c0-2.7,2.36-5.02,6.12-6.19-2.24-1.56-3.12-3.65-3.12-5.66,0-3.31,2.85-6.27,8.09-6.27,4.52,0,7.1,2.32,7.1,4.94,0,2.77-2.2,4.67-5.43,5.93,2.93,1.75,4.07,3.65,4.07,6.04,0,4.48-4.45,6.72-9.08,6.72-4.18,0-7.75-1.94-7.75-5.51ZM77.2,300.32c0-1.67-1.03-2.85-3.04-3.95l-2.39-1.33c-2.66,1.41-3.8,3.27-3.8,5.28,0,2.51,1.63,3.99,4.37,3.99,2.58,0,4.86-1.48,4.86-3.99ZM71.16,287.44c0,1.6.87,2.77,2.77,3.88l1.79,1.03c2.66-1.82,3.27-3.46,3.27-4.98,0-2.17-1.41-3.5-3.76-3.5s-4.07,1.44-4.07,3.57Z"/>
  <g>
    <path class="cls-1" d="M57,130.14l4.1-.72,1.9-9.95c.19-1.03.38-1.98.68-2.96-1.48.34-2.85.46-4.48.49l-.04-1.48c3.31-.49,5.7-1.33,8.24-3.72h1.37l-2.93,15.27c-.15.87-.3,1.56-.49,2.36l3.72.72-.23,1.33h-12.12l.27-1.33Z"/>
    <path class="cls-1" d="M73.11,123.76c0-6.69,4.75-11.97,10.79-11.97,4.52,0,7.41,3.27,7.41,8.02,0,6.72-4.75,11.97-10.83,11.97-4.52,0-7.37-3.23-7.37-8.02ZM77.44,125.43c0,2.96,1.18,4.75,3.04,4.75,3.5,0,6.46-6.08,6.46-12.04,0-2.96-1.18-4.75-3.04-4.75-3.5,0-6.46,6.08-6.46,12.04Z"/>
  </g>
  <g>
    <path class="cls-1" d="M124.08,66.57l4.1-.72,1.9-9.95c.19-1.03.38-1.98.68-2.96-1.48.34-2.85.46-4.48.49l-.04-1.48c3.31-.49,5.7-1.33,8.24-3.72h1.37l-2.93,15.27c-.15.87-.3,1.56-.49,2.36l3.72.72-.23,1.33h-12.12l.27-1.33Z"/>
    <path class="cls-1" d="M138.49,66.57l4.1-.72,1.9-9.95c.19-1.03.38-1.98.68-2.96-1.48.34-2.85.46-4.48.49l-.04-1.48c3.31-.49,5.7-1.33,8.24-3.72h1.37l-2.93,15.27c-.15.87-.3,1.56-.49,2.36l3.72.72-.23,1.33h-12.12l.27-1.33Z"/>
  </g>
</svg>